<svg width="24" height="24" viewBox="0 0 24 24" fill="none" xmlns="http://www.w3.org/2000/svg">
<path d="M2.99219 9.00038C2.86086 9.00034 2.73081 9.02618 2.60946 9.07643C2.48812 9.12667 2.37787 9.20033 2.285 9.29319C2.19214 9.38606 2.11848 9.49631 2.06824 9.61765C2.018 9.739 1.99215 9.86905 1.99219 10.0003V14.0003C1.99219 14.2656 2.09755 14.5199 2.28508 14.7074C2.47262 14.895 2.72697 15.0003 2.99219 15.0003C3.25741 15.0003 3.51176 14.895 3.6993 14.7074C3.88683 14.5199 3.99219 14.2656 3.99219 14.0003V10.0003C3.99222 9.86905 3.96638 9.739 3.91614 9.61765C3.8659 9.49631 3.79224 9.38606 3.69938 9.29319C3.60651 9.20033 3.49626 9.12667 3.37491 9.07643C3.25357 9.02618 3.12352 9.00034 2.99219 9.00038ZM20.9922 9.00038C20.8609 9.00034 20.7308 9.02618 20.6095 9.07643C20.4881 9.12667 20.3779 9.20033 20.285 9.29319C20.1921 9.38606 20.1185 9.49631 20.0682 9.61765C20.018 9.739 19.9922 9.86905 19.9922 10.0003V14.0003C19.9922 14.2656 20.0976 14.5199 20.2851 14.7074C20.4726 14.895 20.727 15.0003 20.9922 15.0003C21.2574 15.0003 21.5118 14.895 21.6993 14.7074C21.8868 14.5199 21.9922 14.2656 21.9922 14.0003V10.0003C21.9922 9.86905 21.9664 9.739 21.9162 9.61765C21.8659 9.49631 21.7923 9.38606 21.6994 9.29319C21.6065 9.20033 21.4963 9.12667 21.3749 9.07643C21.2536 9.02618 21.1235 9.00034 20.9922 9.00038ZM16.8579 3.50038C16.924 3.38667 16.9671 3.26103 16.9846 3.13066C17.002 3.00028 16.9936 2.86774 16.9598 2.74063C16.926 2.61352 16.8674 2.49433 16.7874 2.3899C16.7074 2.28547 16.6076 2.19785 16.4937 2.13206C16.3798 2.06628 16.254 2.02362 16.1236 2.00652C15.9932 1.98943 15.8607 1.99825 15.7336 2.03246C15.6066 2.06668 15.4876 2.12562 15.3834 2.20592C15.2792 2.28621 15.1919 2.38628 15.1265 2.50038L14.5123 3.56276C13.7238 3.19239 12.8634 3.00038 11.9922 3.00038C11.121 3.00038 10.2606 3.19239 9.47205 3.56276L8.85791 2.50038C8.79246 2.38628 8.70514 2.28621 8.60095 2.20592C8.49676 2.12562 8.37775 2.06668 8.25074 2.03246C8.12373 1.99825 7.99121 1.98943 7.86079 2.00652C7.73037 2.02362 7.6046 2.06628 7.49069 2.13206C7.37678 2.19785 7.27698 2.28547 7.197 2.3899C7.11702 2.49433 7.05843 2.61352 7.02459 2.74063C6.99076 2.86774 6.98234 3.00028 6.99982 3.13066C7.0173 3.26103 7.06034 3.38667 7.12647 3.50038L7.81897 4.69832C7.24118 5.25598 6.78164 5.92432 6.46779 6.66345C6.15393 7.40258 5.99218 8.19737 5.99219 9.00038V17.0003C5.99216 17.1317 6.018 17.2617 6.06824 17.3831C6.11848 17.5044 6.19214 17.6147 6.28501 17.7075C6.37787 17.8004 6.48812 17.874 6.60947 17.9243C6.73081 17.9745 6.86086 18.0004 6.99219 18.0003H8.99219V21.0003C8.99219 21.2656 9.09755 21.5199 9.28508 21.7074C9.47262 21.895 9.72697 22.0003 9.99219 22.0003C10.2574 22.0003 10.5118 21.895 10.6993 21.7074C10.8868 21.5199 10.9922 21.2656 10.9922 21.0003V18.0003H12.9922V21.0003C12.9922 21.2656 13.0976 21.5199 13.2851 21.7074C13.4726 21.895 13.727 22.0003 13.9922 22.0003C14.2574 22.0003 14.5118 21.895 14.6993 21.7074C14.8868 21.5199 14.9922 21.2656 14.9922 21.0003V18.0003H16.9922C17.1235 18.0004 17.2536 17.9745 17.3749 17.9243C17.4963 17.874 17.6065 17.8004 17.6994 17.7075C17.7922 17.6147 17.8659 17.5044 17.9161 17.3831C17.9664 17.2617 17.9922 17.1317 17.9922 17.0003V9.00038C17.9922 8.19737 17.8305 7.40258 17.5166 6.66345C17.2027 5.92432 16.7432 5.25598 16.1654 4.69832L16.8579 3.50038ZM15.9922 16.0003H7.99219V11.0003H15.9922V16.0003ZM7.99219 9.00038C7.99219 7.93951 8.41362 6.9221 9.16376 6.17195C9.91391 5.42181 10.9313 5.00038 11.9922 5.00038C13.0531 5.00038 14.0705 5.42181 14.8206 6.17195C15.5708 6.9221 15.9922 7.93951 15.9922 9.00038H7.99219Z" fill="black"/>
</svg>