<svg width="24" height="24" viewBox="0 0 24 24" fill="none" xmlns="http://www.w3.org/2000/svg">
<path d="M20.5045 15.7436C19.8927 15.4819 19.3715 15.0458 19.0061 14.4896C18.6406 13.9335 18.4472 13.282 18.4498 12.6166C18.4577 12.0226 18.6168 11.4404 18.9121 10.9249C19.2073 10.4094 19.629 9.97767 20.1373 9.6703C20.2523 9.59922 20.3517 9.50556 20.4295 9.39498C20.5073 9.2844 20.5619 9.15919 20.5899 9.02692C20.6179 8.89466 20.6188 8.75808 20.5926 8.62546C20.5663 8.49283 20.5134 8.3669 20.4371 8.2553C19.9801 7.59076 19.3844 7.03331 18.691 6.62141C17.9977 6.20952 17.2232 5.953 16.421 5.86957C17.1676 4.6847 17.5064 3.28826 17.3858 1.89299C17.3623 1.63963 17.2415 1.40524 17.0489 1.239C16.8563 1.07276 16.6067 0.987601 16.3526 1.00139C14.6356 1.15442 13.0439 1.96428 11.9093 3.26213C11.1901 4.09551 10.6825 5.09012 10.4298 6.16154C9.90761 5.98482 9.36091 5.89123 8.80968 5.8842C7.78916 5.91312 6.79343 6.20523 5.91903 6.73221C5.04463 7.25919 4.32123 8.00316 3.81896 8.89199C1.93126 12.1693 3.08604 17.0805 5.13095 20.0365C5.95126 21.2211 7.18222 22.9994 9.03916 22.9994C9.07578 22.9994 9.11288 22.9994 9.14999 22.9974C9.77217 22.9621 10.3813 22.8045 10.9425 22.5335C11.3907 22.3063 11.8853 22.1854 12.3878 22.18C12.8604 22.1858 13.3251 22.3015 13.7452 22.5179C14.3591 22.8084 15.0281 22.9639 15.7071 22.974C17.6202 22.9378 18.7501 21.2874 19.5753 20.0814C20.2264 19.1234 20.7359 18.0765 21.088 16.973C21.163 16.7322 21.1447 16.4721 21.0365 16.2442C20.9284 16.0164 20.7385 15.8377 20.5045 15.7436V15.7436ZM13.4234 4.56781C13.9487 3.9803 14.6068 3.52694 15.3429 3.24555C15.1818 4.03778 14.8255 4.77727 14.3063 5.39691C13.9538 5.81978 13.525 6.1726 13.0421 6.43699L13.0392 6.43799C13.0109 6.44971 12.9825 6.46045 12.9542 6.47217C12.7677 6.54541 12.5372 6.63623 12.3595 6.69482C12.5311 5.90814 12.8969 5.17692 13.4234 4.56781V4.56781ZM17.9249 18.9526C17.1212 20.1264 16.4889 20.9594 15.6705 20.9741C15.2749 20.9728 14.8859 20.8724 14.5392 20.6821C13.8688 20.3554 13.1335 20.1839 12.3878 20.1801C11.6162 20.184 10.855 20.3591 10.1593 20.6927C9.82102 20.8654 9.45198 20.9696 9.07335 20.9994H9.04356C8.23056 20.9994 7.35607 19.7367 6.7755 18.8978C5.32285 16.7982 3.98301 12.6146 5.55235 9.89002C5.88144 9.30042 6.35734 8.80591 6.93389 8.45447C7.51043 8.10302 8.16803 7.90659 8.84287 7.88422L8.87656 7.88322C9.44585 7.9316 10.0018 8.08211 10.5177 8.32756C10.649 8.37931 10.7784 8.43107 10.9068 8.47892C10.9396 8.4926 10.9732 8.50529 11.0074 8.51603C11.3633 8.65916 11.7413 8.73945 12.1246 8.75334C12.6674 8.7102 13.1975 8.56753 13.6886 8.33244C14.3809 7.99646 15.1418 7.82628 15.9113 7.83537C16.7343 7.86757 17.5244 8.16721 18.1618 8.68889C17.617 9.19075 17.1833 9.80102 16.8885 10.4805C16.5937 11.1599 16.4443 11.8936 16.4498 12.6342V12.6352C16.4442 13.5318 16.6661 14.4152 17.0948 15.2027C17.5235 15.9903 18.1449 16.6562 18.901 17.1381C18.6377 17.7743 18.3107 18.3823 17.9249 18.9526V18.9526Z" fill="black"/>
</svg>