<svg width="26" height="26" viewBox="0 0 26 26" fill="none" xmlns="http://www.w3.org/2000/svg">
<path d="M19.9083 8.71591C19.7446 8.43286 19.3824 8.33595 19.1011 8.49964L17.1204 9.64305C16.2618 8.59123 15.0102 7.87445 13.5909 7.71668V5.90909C13.5909 5.58232 13.3267 5.31818 13 5.31818C12.6732 5.31818 12.4091 5.58232 12.4091 5.90909V7.71668C11.2119 7.84845 10.1033 8.37554 9.23943 9.23945C9.11061 9.36827 8.99007 9.50241 8.87661 9.64127L6.89884 8.49964C6.6158 8.33654 6.25475 8.43286 6.09166 8.71591C5.92857 8.99895 6.02548 9.36 6.30793 9.52309L8.23843 10.6375C7.87798 11.3632 7.68239 12.1656 7.68239 12.9994C7.68239 13.3262 7.94711 13.5903 8.2733 13.5903H10.6511C10.7049 14.7591 10.9176 15.8913 11.2828 16.7564C10.491 16.3942 9.81616 15.7909 9.38007 15.0032C9.30916 14.875 9.19393 14.778 9.05507 14.7308L8.84234 14.6575C8.68161 14.6008 8.50257 14.6191 8.35484 14.7042L6.30793 15.886C6.02489 16.0491 5.92798 16.4107 6.09166 16.6932C6.25475 16.9762 6.61639 17.0725 6.89884 16.9095L8.57052 15.9439C9.44211 17.254 10.8514 18.1066 12.4091 18.281V20.0909C12.4091 20.4177 12.6732 20.6818 13 20.6818C13.3267 20.6818 13.5909 20.4177 13.5909 20.0909V18.2833C15.1893 18.1055 16.5756 17.2179 17.4265 15.9427L19.1011 16.91C19.1939 16.9638 19.2955 16.9892 19.396 16.9892C19.6004 16.9892 19.799 16.8835 19.9083 16.6938C20.0714 16.4107 19.9745 16.0497 19.692 15.8866L17.9654 14.8897C18.1899 14.3012 18.3182 13.666 18.3182 13C18.3182 12.1515 18.1137 11.352 17.7586 10.6393L19.692 9.52309C19.9751 9.36 20.072 8.99895 19.9083 8.71591ZM13 8.86364C13.3167 8.86364 14.0553 10.1028 14.1664 12.4085H11.8329C11.8619 11.8276 11.9322 11.2669 12.0421 10.761C12.1112 10.442 11.908 10.1276 11.5895 10.0585C11.2716 9.98873 10.956 10.1926 10.8869 10.5111C10.7604 11.0961 10.6812 11.7431 10.6511 12.4091H8.90616C9.19334 10.4071 10.9194 8.86364 13 8.86364ZM11.8335 13.5903H14.1664C14.0553 15.8966 13.3167 17.1364 13 17.1364C12.6833 17.1364 11.9446 15.8966 11.8335 13.5903ZM14.716 16.7588C15.0817 15.8937 15.2951 14.7603 15.3488 13.5903H15.9545V12.4085H15.3488C15.2951 11.2391 15.0817 10.1063 14.716 9.24123C16.1412 9.89477 17.1363 11.3319 17.1363 13C17.1363 14.6681 16.1412 16.1052 14.716 16.7588ZM6.69793 5.90909C6.79602 5.90909 6.8953 5.88486 6.98689 5.83286L11.84 3.10286C12.152 3.37468 12.5544 3.54545 13 3.54545C13.9773 3.54545 14.7727 2.75009 14.7727 1.77273C14.7727 0.795364 13.9773 0 13 0C12.0226 0 11.2273 0.795364 11.2273 1.77273C11.2273 1.87614 11.2408 1.97659 11.258 2.07527L6.4078 4.8035C6.12357 4.96364 6.02252 5.3235 6.18266 5.60773C6.2908 5.80036 6.49111 5.90909 6.69793 5.90909ZM13 1.18182C13.3262 1.18182 13.5909 1.44655 13.5909 1.77273C13.5909 2.09891 13.3262 2.36364 13 2.36364C12.6738 2.36364 12.4091 2.09891 12.4091 1.77273C12.4091 1.44655 12.6738 1.18182 13 1.18182ZM15.9315 3.91359L20.7232 6.75173C20.6434 7.15768 20.6972 7.59141 20.9199 7.97668C21.1563 8.38677 21.5386 8.68045 21.996 8.80277C22.149 8.84355 22.3038 8.86423 22.4575 8.86423C22.7648 8.86423 23.0679 8.78386 23.3409 8.62668C24.1877 8.13741 24.479 7.05132 23.9903 6.20455C23.501 5.35836 22.4155 5.06586 21.5687 5.55514C21.5682 5.55514 21.5682 5.55514 21.5676 5.55514C21.4783 5.60714 21.3986 5.66859 21.3217 5.73241L16.5336 2.89664C16.2517 2.73 15.8895 2.82336 15.7241 3.10405C15.558 3.38532 15.6508 3.74755 15.9315 3.91359ZM22.1591 6.57918C22.4421 6.41609 22.8043 6.51418 22.9663 6.79545C23.1293 7.07791 23.0318 7.44014 22.75 7.60264C22.6129 7.68123 22.4533 7.7025 22.3015 7.66173C22.149 7.62154 22.022 7.52345 21.9434 7.38636C21.7797 7.10391 21.8766 6.74227 22.1591 6.57918ZM10.0691 22.0864L5.27739 19.2477C5.35716 18.8417 5.30339 18.408 5.0812 18.0227C4.59193 17.1765 3.50702 16.8858 2.65848 17.3733C1.8123 17.8626 1.52157 18.9493 2.01025 19.7949C2.24661 20.205 2.62893 20.4986 3.0863 20.621C3.23934 20.6617 3.39416 20.6824 3.5478 20.6824C3.85566 20.6824 4.15821 20.602 4.4312 20.4449C4.52102 20.3929 4.6008 20.3314 4.67761 20.267L9.46575 23.1034C9.5603 23.1595 9.6643 23.1861 9.76652 23.1861C9.96861 23.1861 10.1654 23.0827 10.2753 22.8965C10.4425 22.6147 10.3498 22.2525 10.0691 22.0864ZM3.84089 19.4208C3.7038 19.5 3.54366 19.5201 3.39239 19.4799C3.23993 19.4397 3.11289 19.3416 3.0343 19.2045C2.87121 18.9221 2.96871 18.5599 3.24939 18.3974C3.34216 18.3436 3.4438 18.3182 3.54425 18.3182C3.74871 18.3182 3.94843 18.4245 4.05716 18.6136C4.22084 18.8961 4.12334 19.2583 3.84089 19.4208ZM19.0137 20.1671L14.1599 22.8977C13.8479 22.6253 13.4455 22.4545 13 22.4545C12.0226 22.4545 11.2273 23.2499 11.2273 24.2273C11.2273 25.2046 12.0226 26 13 26C13.9773 26 14.7727 25.2046 14.7727 24.2273C14.7727 24.1239 14.7591 24.024 14.742 23.9253L19.5928 21.1965C19.877 21.0364 19.978 20.6765 19.8179 20.3923C19.6589 20.1075 19.2985 20.0052 19.0137 20.1671ZM13 24.8182C12.6738 24.8182 12.4091 24.5535 12.4091 24.2273C12.4091 23.9011 12.6738 23.6364 13 23.6364C13.3262 23.6364 13.5909 23.9011 13.5909 24.2273C13.5909 24.5535 13.3262 24.8182 13 24.8182ZM2.95452 8.75491V15.3636C2.95452 15.6904 3.21866 15.9545 3.54543 15.9545C3.8722 15.9545 4.13634 15.6904 4.13634 15.3636V8.75491C4.82239 8.51027 5.31816 7.86027 5.31816 7.09091C5.31816 6.11355 4.5228 5.31818 3.54543 5.31818C2.56807 5.31818 1.77271 6.11355 1.77271 7.09091C1.77271 7.86027 2.26848 8.51027 2.95452 8.75491ZM3.54543 6.5C3.87161 6.5 4.13634 6.76473 4.13634 7.09091C4.13634 7.41709 3.87161 7.68182 3.54543 7.68182C3.21925 7.68182 2.95452 7.41709 2.95452 7.09091C2.95452 6.76473 3.21925 6.5 3.54543 6.5ZM23.0454 17.2451V10.6364C23.0454 10.3096 22.7813 10.0455 22.4545 10.0455C22.1277 10.0455 21.8636 10.3096 21.8636 10.6364V17.2451C21.1776 17.4897 20.6818 18.1397 20.6818 18.9091C20.6818 19.8865 21.4772 20.6818 22.4545 20.6818C23.4319 20.6818 24.2272 19.8865 24.2272 18.9091C24.2272 18.1397 23.7315 17.4897 23.0454 17.2451ZM22.4545 19.5C22.1283 19.5 21.8636 19.2353 21.8636 18.9091C21.8636 18.5829 22.1283 18.3182 22.4545 18.3182C22.7807 18.3182 23.0454 18.5829 23.0454 18.9091C23.0454 19.2353 22.7807 19.5 22.4545 19.5Z" fill="#231F20"/>
</svg>