<svg width="24" height="24" viewBox="0 0 24 24" fill="none" xmlns="http://www.w3.org/2000/svg">
<path d="M18.8624 18.7875V2.25001C18.8624 1.12501 18.1124 0.412506 17.0249 0.412506H7.01236C5.99986 0.412506 5.09986 1.16251 5.13736 2.28751V21.75C5.13736 22.8375 5.99986 23.625 7.01236 23.5875H16.9874C17.9999 23.5875 18.8999 22.9125 18.8999 21.675C18.8624 20.7375 18.8624 19.7625 18.8624 18.7875V18.7875ZM12.0374 22.875C11.4374 22.875 10.9499 22.35 10.9499 21.75C10.9499 21.15 11.4374 20.6625 12.0374 20.6625C12.6374 20.6625 13.1249 21.15 13.1249 21.75C13.1249 22.3875 12.6374 22.875 12.0374 22.875ZM17.6249 19.9875H6.44986V2.96251H17.6249V19.9875Z" fill="black"/>
</svg>