<svg width="24" height="24" viewBox="0 0 24 24" fill="none" xmlns="http://www.w3.org/2000/svg">
<g clip-path="url(#clip0_8_301)">
<path d="M21.8363 20.2088L2.19375 20.25C2.0081 20.2505 1.82416 20.2144 1.65245 20.1438C1.48074 20.0732 1.32461 19.9695 1.19298 19.8386C1.06136 19.7076 0.956806 19.5521 0.885304 19.3807C0.813802 19.2094 0.776747 19.0257 0.776255 18.84L0.750005 5.20876C0.749512 5.0231 0.785592 4.83916 0.856184 4.66745C0.926776 4.49574 1.0305 4.33961 1.16143 4.20798C1.29236 4.07636 1.44794 3.97181 1.61927 3.9003C1.79061 3.8288 1.97435 3.79175 2.16001 3.79125L21.8025 3.75C21.9882 3.74951 22.1721 3.78559 22.3438 3.85618C22.5155 3.92678 22.6716 4.0305 22.8033 4.16143C22.9349 4.29236 23.0395 4.44794 23.111 4.61927C23.1825 4.79061 23.2195 4.97435 23.22 5.16001L23.25 18.7913C23.25 19.1666 23.1012 19.5265 22.8362 19.7923C22.5711 20.058 22.2115 20.2078 21.8363 20.2088V20.2088Z" stroke="black" stroke-width="2" stroke-miterlimit="10"/>
<path d="M10.5039 17.235H13.4927" stroke="black" stroke-width="2" stroke-miterlimit="10"/>
</g>
<defs>
<clipPath id="clip0_8_301">
<rect width="24" height="24" fill="white"/>
</clipPath>
</defs>
</svg>