<svg width="24" height="24" viewBox="0 0 24 24" fill="none" xmlns="http://www.w3.org/2000/svg">
<g clip-path="url(#clip0_8_311)">
<path d="M16.4016 5.01339L15.9797 1.03083C15.9605 0.849376 15.8737 0.681359 15.736 0.559176C15.5984 0.436993 15.4197 0.369296 15.2344 0.369141H8.76562C8.58021 0.369182 8.40139 0.436828 8.26367 0.559022C8.12594 0.681216 8.03908 0.849296 8.01984 1.03083L7.59797 5.01339C7.04338 5.23387 6.56827 5.61228 6.23348 6.10016C5.89869 6.58804 5.71947 7.16319 5.71875 7.75195V15.873C5.7195 16.4619 5.8988 17.037 6.23368 17.5249C6.56855 18.0128 7.04376 18.3912 7.59844 18.6116L8.02031 22.5942C8.03954 22.7756 8.12634 22.9436 8.26396 23.0658C8.40159 23.188 8.5803 23.2557 8.76562 23.2559H15.2344C15.4198 23.2558 15.5986 23.1882 15.7363 23.066C15.8741 22.9438 15.9609 22.7757 15.9802 22.5942L16.402 18.6116C16.9566 18.3911 17.4317 18.0127 17.7665 17.5248C18.1013 17.037 18.2805 16.4618 18.2812 15.873V7.75195C18.2805 7.16314 18.1012 6.58795 17.7663 6.10006C17.4314 5.61217 16.9562 5.23379 16.4016 5.01339V5.01339ZM9.44156 1.8457H14.5584L14.8711 4.79883H9.12891L9.44156 1.8457ZM14.5584 21.7793H9.44156L9.12891 18.8262H14.8711L14.5584 21.7793ZM16.7812 15.873C16.7812 16.2647 16.6232 16.6402 16.3419 16.9171C16.0606 17.194 15.6791 17.3496 15.2812 17.3496H8.71875C8.32093 17.3496 7.93939 17.194 7.65809 16.9171C7.37679 16.6402 7.21875 16.2647 7.21875 15.873V7.75195C7.21875 7.36034 7.37679 6.98478 7.65809 6.70787C7.93939 6.43096 8.32093 6.27539 8.71875 6.27539H15.2812C15.6791 6.27539 16.0606 6.43096 16.3419 6.70787C16.6232 6.98478 16.7812 7.36034 16.7812 7.75195V15.873ZM15.7645 11.8051C15.7645 11.9021 15.7451 11.9981 15.7074 12.0876C15.6697 12.1772 15.6145 12.2586 15.5449 12.3272C15.4752 12.3957 15.3925 12.4501 15.3015 12.4872C15.2105 12.5243 15.113 12.5434 15.0145 12.5434H14.9278L14.04 15.3973C13.8281 16.0779 12.8508 16.0959 12.6141 15.4222L11.0587 10.9958L10.6762 12.0529C10.6243 12.1964 10.5285 12.3206 10.4021 12.4084C10.2756 12.4962 10.1246 12.5434 9.96984 12.5434H8.98547C8.78656 12.5434 8.59579 12.4656 8.45514 12.3272C8.31449 12.1887 8.23547 12.0009 8.23547 11.8051C8.23547 11.6093 8.31449 11.4215 8.45514 11.2831C8.59579 11.1446 8.78656 11.0668 8.98547 11.0668H9.44062L10.3627 8.5193C10.5998 7.86408 11.5467 7.86777 11.7778 8.52576L13.2778 12.7995L13.6528 11.5892C13.6998 11.438 13.7948 11.3056 13.9239 11.2116C14.053 11.1176 14.2094 11.0668 14.37 11.0668H15.0112C15.11 11.0664 15.2079 11.0852 15.2993 11.1221C15.3906 11.159 15.4737 11.2133 15.5437 11.2819C15.6137 11.3505 15.6692 11.4321 15.7071 11.5218C15.745 11.6116 15.7645 11.7079 15.7645 11.8051V11.8051Z" fill="black"/>
</g>
<defs>
<clipPath id="clip0_8_311">
<rect width="24" height="23.625" fill="white"/>
</clipPath>
</defs>
</svg>